<?xml version="1.0" encoding="UTF-8"?>
<svg width="727px" height="368px" viewBox="0 0 727 368" version="1.1" xmlns="http://www.w3.org/2000/svg" xmlns:xlink="http://www.w3.org/1999/xlink">
    <!-- Generator: Sketch 63.1 (92452) - https://sketch.com -->
    <title>Fill 3</title>
    <desc>Created with Sketch.</desc>
    <g id="Page-1" stroke="none" stroke-width="1" fill="none" fill-rule="evenodd">
        <g id="Artboard" transform="translate(-273.000000, -508.000000)" fill="#000000">
            <path d="M985.568451,511.552441 L985.556049,511.538594 L984.427482,510.915464 C971.678388,504.033347 956.176085,509.918458 949.913155,524.139653 L832.368495,791.337499 C829.280436,798.371936 823.005104,802.733841 815.985661,802.733841 C808.97862,802.733841 802.690886,798.371936 799.602828,791.337499 L691.446362,545.47837 C681.301655,522.325654 660.764204,508.090612 637.684376,508.090612 L635.427241,508.090612 C612.223394,508.090612 591.698345,522.325654 581.553638,545.47837 L473.397172,791.337499 C470.309114,798.371936 464.02138,802.733841 457.014339,802.733841 C449.994896,802.733841 443.719564,798.371936 440.631505,791.337499 L323.086845,524.139653 C316.823915,509.90461 301.321612,503.936416 288.560116,510.929312 L287.443951,511.538594 C281.255431,514.917339 276.629544,520.760907 274.397213,528.003055 C272.177283,535.272897 272.611347,543.068937 275.637397,549.964901 L404.30651,838.889188 C414.662048,862.138835 434.703425,876 457.944477,876 L458.155308,876 C481.483173,875.916916 501.52455,861.917278 511.780874,838.515311 L622.541727,587.740384 L622.90138,588.280429 C626.249877,583.960066 631.136203,581.370618 636.468995,581.287534 C641.987815,581.370618 646.998159,584.084692 650.37146,588.612765 L650.532684,588.418903 L652.814623,592.226915 L761.219126,838.515311 C771.47545,861.917278 791.529228,875.916916 814.844692,876 L815.043121,876 C838.284173,876 858.32555,862.138835 868.69349,838.889188 L997.362603,549.951053 C1000.38865,543.068937 1000.82272,535.286744 998.602787,528.016902 C996.370456,520.760907 991.744569,514.917339 985.568451,511.552441" id="Fill-3"></path>
        </g>
    </g>
</svg>